<svg width="460" height="75" xmlns="http://www.w3.org/2000/svg" xmlns:xlink="http://www.w3.org/1999/xlink">
    <!-- Include styles for switching based on color scheme -->
    <style>
        #dark-mode-image { display: none; }
        @media (prefers-color-scheme: dark) {
            #light-mode-image { display: none; }
            #dark-mode-image { display: inline; }
        }
        @media (prefers-color-scheme: light) {
            #light-mode-image { display: inline; }
            #dark-mode-image { display: none; }
        }
    </style>
    
    <!-- Your light mode SVG content goes here. Assign it an ID for referencing -->
    <g id="light-mode-image">
        <path d="M141.068 93V23.1818H168.614C173.886 23.1818 178.386 24.125 182.114 26.0114C185.864 27.875 188.716 30.5227 190.67 33.9545C192.648 37.3636 193.636 41.375 193.636 45.9886C193.636 50.625 192.636 54.6136 190.636 57.9545C188.636 61.2727 185.739 63.8182 181.943 65.5909C178.17 67.3636 173.602 68.25 168.239 68.25H149.795V56.3864H165.852C168.67 56.3864 171.011 56 172.875 55.2273C174.739 54.4545 176.125 53.2955 177.034 51.75C177.966 50.2045 178.432 48.2841 178.432 45.9886C178.432 43.6705 177.966 41.7159 177.034 40.125C176.125 38.5341 174.727 37.3295 172.841 36.5114C170.977 35.6705 168.625 35.25 165.784 35.25H155.83V93H141.068ZM178.773 61.2273L196.125 93H179.83L162.852 61.2273H178.773ZM226.815 94.0227C221.429 94.0227 216.793 92.9318 212.906 90.75C209.043 88.5455 206.065 85.4318 203.974 81.4091C201.884 77.3636 200.838 72.5795 200.838 67.0568C200.838 61.6705 201.884 56.9432 203.974 52.875C206.065 48.8068 209.009 45.6364 212.804 43.3636C216.622 41.0909 221.099 39.9545 226.236 39.9545C229.69 39.9545 232.906 40.5114 235.884 41.625C238.884 42.7159 241.497 44.3636 243.724 46.5682C245.974 48.7727 247.724 51.5455 248.974 54.8864C250.224 58.2045 250.849 62.0909 250.849 66.5455V70.5341H206.634V61.5341H237.179C237.179 59.4432 236.724 57.5909 235.815 55.9773C234.906 54.3636 233.645 53.1023 232.031 52.1932C230.44 51.2614 228.588 50.7955 226.474 50.7955C224.27 50.7955 222.315 51.3068 220.611 52.3295C218.929 53.3295 217.611 54.6818 216.656 56.3864C215.702 58.0682 215.213 59.9432 215.19 62.0114V70.5682C215.19 73.1591 215.668 75.3977 216.622 77.2841C217.599 79.1705 218.974 80.625 220.747 81.6477C222.52 82.6705 224.622 83.1818 227.054 83.1818C228.668 83.1818 230.145 82.9545 231.486 82.5C232.827 82.0455 233.974 81.3636 234.929 80.4545C235.884 79.5455 236.611 78.4318 237.111 77.1136L250.543 78C249.861 81.2273 248.463 84.0455 246.349 86.4545C244.259 88.8409 241.554 90.7045 238.236 92.0455C234.94 93.3636 231.134 94.0227 226.815 94.0227ZM260.327 93V40.6364H274.168V49.875H274.781C275.872 46.8068 277.69 44.3864 280.236 42.6136C282.781 40.8409 285.827 39.9545 289.372 39.9545C292.963 39.9545 296.02 40.8523 298.543 42.6477C301.065 44.4205 302.747 46.8295 303.588 49.875H304.134C305.202 46.875 307.134 44.4773 309.929 42.6818C312.747 40.8636 316.077 39.9545 319.918 39.9545C324.804 39.9545 328.77 41.5114 331.815 44.625C334.884 47.7159 336.418 52.1023 336.418 57.7841V93H321.929V60.6477C321.929 57.7386 321.156 55.5568 319.611 54.1023C318.065 52.6477 316.134 51.9205 313.815 51.9205C311.179 51.9205 309.122 52.7614 307.645 54.4432C306.168 56.1023 305.429 58.2955 305.429 61.0227V93H291.349V60.3409C291.349 57.7727 290.611 55.7273 289.134 54.2045C287.679 52.6818 285.759 51.9205 283.372 51.9205C281.759 51.9205 280.304 52.3295 279.009 53.1477C277.736 53.9432 276.724 55.0682 275.974 56.5227C275.224 57.9545 274.849 59.6364 274.849 61.5682V93H260.327ZM371.753 94.0227C366.366 94.0227 361.73 92.9318 357.844 90.75C353.98 88.5455 351.003 85.4318 348.912 81.4091C346.821 77.3636 345.776 72.5795 345.776 67.0568C345.776 61.6705 346.821 56.9432 348.912 52.875C351.003 48.8068 353.946 45.6364 357.741 43.3636C361.56 41.0909 366.037 39.9545 371.173 39.9545C374.628 39.9545 377.844 40.5114 380.821 41.625C383.821 42.7159 386.435 44.3636 388.662 46.5682C390.912 48.7727 392.662 51.5455 393.912 54.8864C395.162 58.2045 395.787 62.0909 395.787 66.5455V70.5341H351.571V61.5341H382.116C382.116 59.4432 381.662 57.5909 380.753 55.9773C379.844 54.3636 378.582 53.1023 376.969 52.1932C375.378 51.2614 373.526 50.7955 371.412 50.7955C369.207 50.7955 367.253 51.3068 365.548 52.3295C363.866 53.3295 362.548 54.6818 361.594 56.3864C360.639 58.0682 360.151 59.9432 360.128 62.0114V70.5682C360.128 73.1591 360.605 75.3977 361.56 77.2841C362.537 79.1705 363.912 80.625 365.685 81.6477C367.457 82.6705 369.56 83.1818 371.991 83.1818C373.605 83.1818 375.082 82.9545 376.423 82.5C377.764 82.0455 378.912 81.3636 379.866 80.4545C380.821 79.5455 381.548 78.4318 382.048 77.1136L395.48 78C394.798 81.2273 393.401 84.0455 391.287 86.4545C389.196 88.8409 386.491 90.7045 383.173 92.0455C379.878 93.3636 376.071 94.0227 371.753 94.0227ZM405.264 93V40.6364H419.105V49.875H419.719C420.81 46.8068 422.628 44.3864 425.173 42.6136C427.719 40.8409 430.764 39.9545 434.31 39.9545C437.901 39.9545 440.957 40.8523 443.48 42.6477C446.003 44.4205 447.685 46.8295 448.526 49.875H449.071C450.139 46.875 452.071 44.4773 454.866 42.6818C457.685 40.8636 461.014 39.9545 464.855 39.9545C469.741 39.9545 473.707 41.5114 476.753 44.625C479.821 47.7159 481.355 52.1023 481.355 57.7841V93H466.866V60.6477C466.866 57.7386 466.094 55.5568 464.548 54.1023C463.003 52.6477 461.071 51.9205 458.753 51.9205C456.116 51.9205 454.06 52.7614 452.582 54.4432C451.105 56.1023 450.366 58.2955 450.366 61.0227V93H436.287V60.3409C436.287 57.7727 435.548 55.7273 434.071 54.2045C432.616 52.6818 430.696 51.9205 428.31 51.9205C426.696 51.9205 425.241 52.3295 423.946 53.1477C422.673 53.9432 421.662 55.0682 420.912 56.5227C420.162 57.9545 419.787 59.6364 419.787 61.5682V93H405.264ZM493.099 93V23.1818H507.622V49.4318H508.065C508.702 48.0227 509.622 46.5909 510.827 45.1364C512.054 43.6591 513.645 42.4318 515.599 41.4545C517.577 40.4545 520.031 39.9545 522.963 39.9545C526.781 39.9545 530.304 40.9545 533.531 42.9545C536.759 44.9318 539.338 47.9205 541.27 51.9205C543.202 55.8977 544.168 60.8864 544.168 66.8864C544.168 72.7273 543.224 77.6591 541.338 81.6818C539.474 85.6818 536.929 88.7159 533.702 90.7841C530.497 92.8295 526.906 93.8523 522.929 93.8523C520.111 93.8523 517.713 93.3864 515.736 92.4545C513.781 91.5227 512.179 90.3523 510.929 88.9432C509.679 87.5114 508.724 86.0682 508.065 84.6136H507.418V93H493.099ZM507.315 66.8182C507.315 69.9318 507.747 72.6477 508.611 74.9659C509.474 77.2841 510.724 79.0909 512.361 80.3864C513.997 81.6591 515.986 82.2955 518.327 82.2955C520.69 82.2955 522.69 81.6477 524.327 80.3523C525.963 79.0341 527.202 77.2159 528.043 74.8977C528.906 72.5568 529.338 69.8636 529.338 66.8182C529.338 63.7955 528.918 61.1364 528.077 58.8409C527.236 56.5455 525.997 54.75 524.361 53.4545C522.724 52.1591 520.713 51.5114 518.327 51.5114C515.963 51.5114 513.963 52.1364 512.327 53.3864C510.713 54.6364 509.474 56.4091 508.611 58.7045C507.747 61 507.315 63.7045 507.315 66.8182ZM553.858 93V40.6364H567.938V49.7727H568.483C569.438 46.5227 571.04 44.0682 573.29 42.4091C575.54 40.7273 578.131 39.8864 581.062 39.8864C581.79 39.8864 582.574 39.9318 583.415 40.0227C584.256 40.1136 584.994 40.2386 585.631 40.3977V53.2841C584.949 53.0795 584.006 52.8977 582.801 52.7386C581.597 52.5795 580.494 52.5 579.494 52.5C577.358 52.5 575.449 52.9659 573.767 53.8977C572.108 54.8068 570.79 56.0795 569.812 57.7159C568.858 59.3523 568.381 61.2386 568.381 63.375V93H553.858ZM606.571 93.9886C603.23 93.9886 600.253 93.4091 597.639 92.25C595.026 91.0682 592.957 89.3295 591.435 87.0341C589.935 84.7159 589.185 81.8295 589.185 78.375C589.185 75.4659 589.719 73.0227 590.787 71.0455C591.855 69.0682 593.31 67.4773 595.151 66.2727C596.991 65.0682 599.082 64.1591 601.423 63.5455C603.787 62.9318 606.264 62.5 608.855 62.25C611.901 61.9318 614.355 61.6364 616.219 61.3636C618.082 61.0682 619.435 60.6364 620.276 60.0682C621.116 59.5 621.537 58.6591 621.537 57.5455V57.3409C621.537 55.1818 620.855 53.5114 619.491 52.3295C618.151 51.1477 616.241 50.5568 613.764 50.5568C611.151 50.5568 609.071 51.1364 607.526 52.2955C605.98 53.4318 604.957 54.8636 604.457 56.5909L591.026 55.5C591.707 52.3182 593.048 49.5682 595.048 47.25C597.048 44.9091 599.628 43.1136 602.787 41.8636C605.969 40.5909 609.651 39.9545 613.832 39.9545C616.741 39.9545 619.526 40.2955 622.185 40.9773C624.866 41.6591 627.241 42.7159 629.31 44.1477C631.401 45.5795 633.048 47.4205 634.253 49.6705C635.457 51.8977 636.06 54.5682 636.06 57.6818V93H622.287V85.7386H621.878C621.037 87.375 619.912 88.8182 618.503 90.0682C617.094 91.2955 615.401 92.2614 613.423 92.9659C611.446 93.6477 609.162 93.9886 606.571 93.9886ZM610.73 83.9659C612.866 83.9659 614.753 83.5455 616.389 82.7045C618.026 81.8409 619.31 80.6818 620.241 79.2273C621.173 77.7727 621.639 76.125 621.639 74.2841V68.7273C621.185 69.0227 620.56 69.2955 619.764 69.5455C618.991 69.7727 618.116 69.9886 617.139 70.1932C616.162 70.375 615.185 70.5455 614.207 70.7045C613.23 70.8409 612.344 70.9659 611.548 71.0795C609.844 71.3295 608.355 71.7273 607.082 72.2727C605.81 72.8182 604.821 73.5568 604.116 74.4886C603.412 75.3977 603.06 76.5341 603.06 77.8977C603.06 79.875 603.776 81.3864 605.207 82.4318C606.662 83.4545 608.503 83.9659 610.73 83.9659ZM661.849 23.1818V93H647.327V23.1818H661.849ZM688.006 23.1818V93H673.483V23.1818H688.006Z" fill="#22123F"/>
    </g>
    
    <!-- Your dark mode SVG content goes here. Assign it an ID for referencing -->
    <g id="dark-mode-image">
        <path d="M141.068 93V23.1818H168.614C173.886 23.1818 178.386 24.125 182.114 26.0114C185.864 27.875 188.716 30.5227 190.67 33.9545C192.648 37.3636 193.636 41.375 193.636 45.9886C193.636 50.625 192.636 54.6136 190.636 57.9545C188.636 61.2727 185.739 63.8182 181.943 65.5909C178.17 67.3636 173.602 68.25 168.239 68.25H149.795V56.3864H165.852C168.67 56.3864 171.011 56 172.875 55.2273C174.739 54.4545 176.125 53.2955 177.034 51.75C177.966 50.2045 178.432 48.2841 178.432 45.9886C178.432 43.6705 177.966 41.7159 177.034 40.125C176.125 38.5341 174.727 37.3295 172.841 36.5114C170.977 35.6705 168.625 35.25 165.784 35.25H155.83V93H141.068ZM178.773 61.2273L196.125 93H179.83L162.852 61.2273H178.773ZM226.815 94.0227C221.429 94.0227 216.793 92.9318 212.906 90.75C209.043 88.5455 206.065 85.4318 203.974 81.4091C201.884 77.3636 200.838 72.5795 200.838 67.0568C200.838 61.6705 201.884 56.9432 203.974 52.875C206.065 48.8068 209.009 45.6364 212.804 43.3636C216.622 41.0909 221.099 39.9545 226.236 39.9545C229.69 39.9545 232.906 40.5114 235.884 41.625C238.884 42.7159 241.497 44.3636 243.724 46.5682C245.974 48.7727 247.724 51.5455 248.974 54.8864C250.224 58.2045 250.849 62.0909 250.849 66.5455V70.5341H206.634V61.5341H237.179C237.179 59.4432 236.724 57.5909 235.815 55.9773C234.906 54.3636 233.645 53.1023 232.031 52.1932C230.44 51.2614 228.588 50.7955 226.474 50.7955C224.27 50.7955 222.315 51.3068 220.611 52.3295C218.929 53.3295 217.611 54.6818 216.656 56.3864C215.702 58.0682 215.213 59.9432 215.19 62.0114V70.5682C215.19 73.1591 215.668 75.3977 216.622 77.2841C217.599 79.1705 218.974 80.625 220.747 81.6477C222.52 82.6705 224.622 83.1818 227.054 83.1818C228.668 83.1818 230.145 82.9545 231.486 82.5C232.827 82.0455 233.974 81.3636 234.929 80.4545C235.884 79.5455 236.611 78.4318 237.111 77.1136L250.543 78C249.861 81.2273 248.463 84.0455 246.349 86.4545C244.259 88.8409 241.554 90.7045 238.236 92.0455C234.94 93.3636 231.134 94.0227 226.815 94.0227ZM260.327 93V40.6364H274.168V49.875H274.781C275.872 46.8068 277.69 44.3864 280.236 42.6136C282.781 40.8409 285.827 39.9545 289.372 39.9545C292.963 39.9545 296.02 40.8523 298.543 42.6477C301.065 44.4205 302.747 46.8295 303.588 49.875H304.134C305.202 46.875 307.134 44.4773 309.929 42.6818C312.747 40.8636 316.077 39.9545 319.918 39.9545C324.804 39.9545 328.77 41.5114 331.815 44.625C334.884 47.7159 336.418 52.1023 336.418 57.7841V93H321.929V60.6477C321.929 57.7386 321.156 55.5568 319.611 54.1023C318.065 52.6477 316.134 51.9205 313.815 51.9205C311.179 51.9205 309.122 52.7614 307.645 54.4432C306.168 56.1023 305.429 58.2955 305.429 61.0227V93H291.349V60.3409C291.349 57.7727 290.611 55.7273 289.134 54.2045C287.679 52.6818 285.759 51.9205 283.372 51.9205C281.759 51.9205 280.304 52.3295 279.009 53.1477C277.736 53.9432 276.724 55.0682 275.974 56.5227C275.224 57.9545 274.849 59.6364 274.849 61.5682V93H260.327ZM371.753 94.0227C366.366 94.0227 361.73 92.9318 357.844 90.75C353.98 88.5455 351.003 85.4318 348.912 81.4091C346.821 77.3636 345.776 72.5795 345.776 67.0568C345.776 61.6705 346.821 56.9432 348.912 52.875C351.003 48.8068 353.946 45.6364 357.741 43.3636C361.56 41.0909 366.037 39.9545 371.173 39.9545C374.628 39.9545 377.844 40.5114 380.821 41.625C383.821 42.7159 386.435 44.3636 388.662 46.5682C390.912 48.7727 392.662 51.5455 393.912 54.8864C395.162 58.2045 395.787 62.0909 395.787 66.5455V70.5341H351.571V61.5341H382.116C382.116 59.4432 381.662 57.5909 380.753 55.9773C379.844 54.3636 378.582 53.1023 376.969 52.1932C375.378 51.2614 373.526 50.7955 371.412 50.7955C369.207 50.7955 367.253 51.3068 365.548 52.3295C363.866 53.3295 362.548 54.6818 361.594 56.3864C360.639 58.0682 360.151 59.9432 360.128 62.0114V70.5682C360.128 73.1591 360.605 75.3977 361.56 77.2841C362.537 79.1705 363.912 80.625 365.685 81.6477C367.457 82.6705 369.56 83.1818 371.991 83.1818C373.605 83.1818 375.082 82.9545 376.423 82.5C377.764 82.0455 378.912 81.3636 379.866 80.4545C380.821 79.5455 381.548 78.4318 382.048 77.1136L395.48 78C394.798 81.2273 393.401 84.0455 391.287 86.4545C389.196 88.8409 386.491 90.7045 383.173 92.0455C379.878 93.3636 376.071 94.0227 371.753 94.0227ZM405.264 93V40.6364H419.105V49.875H419.719C420.81 46.8068 422.628 44.3864 425.173 42.6136C427.719 40.8409 430.764 39.9545 434.31 39.9545C437.901 39.9545 440.957 40.8523 443.48 42.6477C446.003 44.4205 447.685 46.8295 448.526 49.875H449.071C450.139 46.875 452.071 44.4773 454.866 42.6818C457.685 40.8636 461.014 39.9545 464.855 39.9545C469.741 39.9545 473.707 41.5114 476.753 44.625C479.821 47.7159 481.355 52.1023 481.355 57.7841V93H466.866V60.6477C466.866 57.7386 466.094 55.5568 464.548 54.1023C463.003 52.6477 461.071 51.9205 458.753 51.9205C456.116 51.9205 454.06 52.7614 452.582 54.4432C451.105 56.1023 450.366 58.2955 450.366 61.0227V93H436.287V60.3409C436.287 57.7727 435.548 55.7273 434.071 54.2045C432.616 52.6818 430.696 51.9205 428.31 51.9205C426.696 51.9205 425.241 52.3295 423.946 53.1477C422.673 53.9432 421.662 55.0682 420.912 56.5227C420.162 57.9545 419.787 59.6364 419.787 61.5682V93H405.264ZM493.099 93V23.1818H507.622V49.4318H508.065C508.702 48.0227 509.622 46.5909 510.827 45.1364C512.054 43.6591 513.645 42.4318 515.599 41.4545C517.577 40.4545 520.031 39.9545 522.963 39.9545C526.781 39.9545 530.304 40.9545 533.531 42.9545C536.759 44.9318 539.338 47.9205 541.27 51.9205C543.202 55.8977 544.168 60.8864 544.168 66.8864C544.168 72.7273 543.224 77.6591 541.338 81.6818C539.474 85.6818 536.929 88.7159 533.702 90.7841C530.497 92.8295 526.906 93.8523 522.929 93.8523C520.111 93.8523 517.713 93.3864 515.736 92.4545C513.781 91.5227 512.179 90.3523 510.929 88.9432C509.679 87.5114 508.724 86.0682 508.065 84.6136H507.418V93H493.099ZM507.315 66.8182C507.315 69.9318 507.747 72.6477 508.611 74.9659C509.474 77.2841 510.724 79.0909 512.361 80.3864C513.997 81.6591 515.986 82.2955 518.327 82.2955C520.69 82.2955 522.69 81.6477 524.327 80.3523C525.963 79.0341 527.202 77.2159 528.043 74.8977C528.906 72.5568 529.338 69.8636 529.338 66.8182C529.338 63.7955 528.918 61.1364 528.077 58.8409C527.236 56.5455 525.997 54.75 524.361 53.4545C522.724 52.1591 520.713 51.5114 518.327 51.5114C515.963 51.5114 513.963 52.1364 512.327 53.3864C510.713 54.6364 509.474 56.4091 508.611 58.7045C507.747 61 507.315 63.7045 507.315 66.8182ZM553.858 93V40.6364H567.938V49.7727H568.483C569.438 46.5227 571.04 44.0682 573.29 42.4091C575.54 40.7273 578.131 39.8864 581.062 39.8864C581.79 39.8864 582.574 39.9318 583.415 40.0227C584.256 40.1136 584.994 40.2386 585.631 40.3977V53.2841C584.949 53.0795 584.006 52.8977 582.801 52.7386C581.597 52.5795 580.494 52.5 579.494 52.5C577.358 52.5 575.449 52.9659 573.767 53.8977C572.108 54.8068 570.79 56.0795 569.812 57.7159C568.858 59.3523 568.381 61.2386 568.381 63.375V93H553.858ZM606.571 93.9886C603.23 93.9886 600.253 93.4091 597.639 92.25C595.026 91.0682 592.957 89.3295 591.435 87.0341C589.935 84.7159 589.185 81.8295 589.185 78.375C589.185 75.4659 589.719 73.0227 590.787 71.0455C591.855 69.0682 593.31 67.4773 595.151 66.2727C596.991 65.0682 599.082 64.1591 601.423 63.5455C603.787 62.9318 606.264 62.5 608.855 62.25C611.901 61.9318 614.355 61.6364 616.219 61.3636C618.082 61.0682 619.435 60.6364 620.276 60.0682C621.116 59.5 621.537 58.6591 621.537 57.5455V57.3409C621.537 55.1818 620.855 53.5114 619.491 52.3295C618.151 51.1477 616.241 50.5568 613.764 50.5568C611.151 50.5568 609.071 51.1364 607.526 52.2955C605.98 53.4318 604.957 54.8636 604.457 56.5909L591.026 55.5C591.707 52.3182 593.048 49.5682 595.048 47.25C597.048 44.9091 599.628 43.1136 602.787 41.8636C605.969 40.5909 609.651 39.9545 613.832 39.9545C616.741 39.9545 619.526 40.2955 622.185 40.9773C624.866 41.6591 627.241 42.7159 629.31 44.1477C631.401 45.5795 633.048 47.4205 634.253 49.6705C635.457 51.8977 636.06 54.5682 636.06 57.6818V93H622.287V85.7386H621.878C621.037 87.375 619.912 88.8182 618.503 90.0682C617.094 91.2955 615.401 92.2614 613.423 92.9659C611.446 93.6477 609.162 93.9886 606.571 93.9886ZM610.73 83.9659C612.866 83.9659 614.753 83.5455 616.389 82.7045C618.026 81.8409 619.31 80.6818 620.241 79.2273C621.173 77.7727 621.639 76.125 621.639 74.2841V68.7273C621.185 69.0227 620.56 69.2955 619.764 69.5455C618.991 69.7727 618.116 69.9886 617.139 70.1932C616.162 70.375 615.185 70.5455 614.207 70.7045C613.23 70.8409 612.344 70.9659 611.548 71.0795C609.844 71.3295 608.355 71.7273 607.082 72.2727C605.81 72.8182 604.821 73.5568 604.116 74.4886C603.412 75.3977 603.06 76.5341 603.06 77.8977C603.06 79.875 603.776 81.3864 605.207 82.4318C606.662 83.4545 608.503 83.9659 610.73 83.9659ZM661.849 23.1818V93H647.327V23.1818H661.849ZM688.006 23.1818V93H673.483V23.1818H688.006Z" fill="white"/>
    </g>
</svg>
